# xmcd
# 
# Track frame offsets:
#     150
#     14652
#     31152
#     55902
#     77652
#     96402
#     121452
#     139152
#     159402
#     175002
#     195495
#     214395
# 
# Disc length: 3154
# 
# Revision: 0
# Processed by: cddbd v1.5.2PL0 Copyright (c) Steve Scherf et al.
# Submitted via: fre:ac v1.0.27
# 
DISCID=a20c500c
DTITLE=David Tughan - Builders Brew Demo
DYEAR=0
DGENRE=
TTITLE0=Luck Be A Lady
TTITLE1=There'll be some changes
TTITLE2=Little Girl Blue
TTITLE3=The Best Is Yet To Come
TTITLE4=Makin' Whoopie
TTITLE5=Love Me Tender
TTITLE6=Somethings Gotta Give
TTITLE7=Round Midnight
TTITLE8=Saturday Night Is The Lonleliest Night Of The Week
TTITLE9=You Don't Know What Love Is
TTITLE10=Come Dance With Me
TTITLE11=Ay Fond Kiss
EXTD=
EXTT0=
EXTT1=
EXTT2=
EXTT3=
EXTT4=
EXTT5=
EXTT6=
EXTT7=
EXTT8=
EXTT9=
EXTT10=
EXTT11=
PLAYORDER=
